<svg width="47" height="64" viewBox="0 0 47 64" fill="none" xmlns="http://www.w3.org/2000/svg">
<path d="M46.1002 32.7314C46.1002 42.8258 27.8446 63.1949 27.8446 63.1949C27.8446 63.1949 9.58887 42.8258 9.58887 32.7314C9.58887 27.4502 11.8258 22.6906 15.4063 19.3567C16.5212 19.442 17.6433 19.498 18.7751 19.5541C19.1037 19.5711 19.4348 19.5882 19.7682 19.6052C20.6713 19.7052 21.494 19.8611 22.2461 20.078V25.3568C20.0263 27.0481 18.595 29.7216 18.595 32.7314C18.595 37.8468 22.7354 41.9923 27.8446 41.9923C32.9537 41.9923 37.0941 37.8468 37.0941 32.7314C37.0941 29.9409 35.86 27.438 33.9127 25.7418V23.8604C33.9152 21.7889 33.9127 18.7547 33.9127 15.489C41.013 17.9919 46.1002 24.767 46.1002 32.7314Z" fill="#0B5B3C"/>
<path d="M30.5131 23.8078V31.8321C30.5131 33.1747 29.4258 34.2616 28.085 34.2616C26.7442 34.2616 25.6545 33.1748 25.6545 31.8345C25.657 28.3987 25.6521 21.1006 25.6545 17.711C23.9066 16.8191 21.9807 16.3586 20.0377 16.1515C16.303 15.9565 13.0338 15.8737 9.92804 14.9867C6.82224 14.1021 3.88221 12.4159 0.805664 9.01173C2.31225 9.68428 3.75788 9.96939 5.15964 9.96939C13.1533 9.96939 19.7281 0.675542 27.7754 0.677979C28.6677 0.677979 29.5794 0.792507 30.5131 1.04593C30.5131 6.51648 30.5156 18.425 30.5131 23.8078Z" fill="#0B5B3C"/>
</svg>
