<svg width="18" height="18" viewBox="0 0 18 18" fill="none" xmlns="http://www.w3.org/2000/svg">
<path fill-rule="evenodd" clip-rule="evenodd" d="M8.98994 0.00488281C6.67241 0.00488281 6.38156 0.0150163 5.47133 0.0564389C4.56288 0.0980393 3.94278 0.241863 3.4002 0.452887C2.83895 0.670845 2.36285 0.962404 1.88854 1.4369C1.41387 1.91121 1.12231 2.38731 0.903637 2.94838C0.69208 3.49114 0.548078 4.11141 0.507189 5.01951C0.466477 5.92974 0.455811 6.22077 0.455811 8.5383C0.455811 10.8558 0.466122 11.1458 0.507367 12.056C0.549145 12.9645 0.692969 13.5846 0.903815 14.1272C1.12195 14.6884 1.41351 15.1645 1.888 15.6388C2.36214 16.1135 2.83824 16.4058 3.39913 16.6237C3.94207 16.8347 4.56234 16.9786 5.47062 17.0202C6.38085 17.0616 6.67152 17.0717 8.98888 17.0717C11.3066 17.0717 11.5965 17.0616 12.5068 17.0202C13.4152 16.9786 14.036 16.8347 14.579 16.6237C15.1401 16.4058 15.6154 16.1135 16.0896 15.6388C16.5642 15.1645 16.8558 14.6884 17.0745 14.1273C17.2843 13.5846 17.4283 12.9643 17.4709 12.0562C17.5118 11.146 17.5225 10.8558 17.5225 8.5383C17.5225 6.22077 17.5118 5.92992 17.4709 5.01969C17.4283 4.11124 17.2843 3.49114 17.0745 2.94856C16.8558 2.38731 16.5642 1.91121 16.0896 1.4369C15.6149 0.962226 15.1402 0.670667 14.5784 0.452887C14.0344 0.241863 13.414 0.0980393 12.5055 0.0564389C11.5953 0.0150163 11.3055 0.00488281 8.98728 0.00488281H8.98994ZM8.22439 1.54265C8.45159 1.5423 8.7051 1.54265 8.98991 1.54265C11.2683 1.54265 11.5384 1.55083 12.4381 1.59172C13.2701 1.62976 13.7217 1.76879 14.0225 1.88559C14.4207 2.04026 14.7046 2.22515 15.0031 2.52382C15.3018 2.82249 15.4867 3.10694 15.6417 3.50516C15.7585 3.80561 15.8977 4.25717 15.9356 5.08918C15.9765 5.98874 15.9854 6.25897 15.9854 8.53633C15.9854 10.8137 15.9765 11.0839 15.9356 11.9835C15.8975 12.8155 15.7585 13.267 15.6417 13.5675C15.487 13.9657 15.3018 14.2493 15.0031 14.5478C14.7045 14.8464 14.4209 15.0313 14.0225 15.186C13.722 15.3033 13.2701 15.442 12.4381 15.48C11.5386 15.5209 11.2683 15.5298 8.98991 15.5298C6.71131 15.5298 6.44126 15.5209 5.54169 15.48C4.70968 15.4416 4.25812 15.3026 3.95714 15.1858C3.55892 15.0311 3.27447 14.8463 2.9758 14.5476C2.67713 14.2489 2.49224 13.9652 2.33722 13.5668C2.22041 13.2663 2.08121 12.8148 2.04335 11.9828C2.00246 11.0832 1.99428 10.813 1.99428 8.53419C1.99428 6.25541 2.00246 5.98661 2.04335 5.08705C2.08139 4.25504 2.22041 3.80348 2.33722 3.50267C2.49188 3.10445 2.67713 2.82 2.9758 2.52133C3.27447 2.22266 3.55892 2.03777 3.95714 1.88275C4.25795 1.76541 4.70968 1.62674 5.54169 1.58852C6.3289 1.55296 6.63397 1.5423 8.22439 1.54052V1.54265ZM13.545 2.95956C12.9796 2.95956 12.521 3.4177 12.521 3.98321C12.521 4.54855 12.9796 5.00723 13.545 5.00723C14.1103 5.00723 14.569 4.54855 14.569 3.98321C14.569 3.41788 14.1103 2.95956 13.545 2.95956ZM8.98996 4.15601C6.56984 4.15601 4.60769 6.11817 4.60769 8.53828C4.60769 10.9584 6.56984 12.9197 8.98996 12.9197C11.4101 12.9197 13.3715 10.9584 13.3715 8.53828C13.3715 6.11817 11.4101 4.15601 8.98996 4.15601ZM8.98993 5.69381C10.5608 5.69381 11.8344 6.96724 11.8344 8.53828C11.8344 10.1091 10.5608 11.3828 8.98993 11.3828C7.41889 11.3828 6.14545 10.1091 6.14545 8.53828C6.14545 6.96724 7.41889 5.69381 8.98993 5.69381Z" fill="white"/>
</svg>
