<svg width="18" height="17" viewBox="0 0 18 17" fill="none" xmlns="http://www.w3.org/2000/svg">
<path d="M4.53499 2.41988C4.51145 1.35169 3.74758 0.538086 2.50717 0.538086C1.26675 0.538086 0.455811 1.35169 0.455811 2.41988C0.455811 3.46595 1.24278 4.30298 2.4601 4.30298H2.48327C3.74758 4.30298 4.53499 3.46595 4.53499 2.41988Z" fill="white"/>
<path d="M4.29618 5.79004H0.670227V16.6845H4.29618V5.79004Z" fill="white"/>
<path d="M13.1979 5.53418C15.584 5.53418 17.3727 7.09161 17.3727 10.4379L17.3726 16.6845H13.7468V10.8559C13.7468 9.39192 13.2221 8.39292 11.9095 8.39292C10.9077 8.39292 10.3111 9.06639 10.049 9.71687C9.95314 9.94999 9.92961 10.2748 9.92961 10.6004V16.6848H6.30322C6.30322 16.6848 6.35101 6.81257 6.30322 5.79029H9.92961V7.3334C10.4109 6.5916 11.2728 5.53418 13.1979 5.53418Z" fill="white"/>
</svg>
