<svg width="16" height="19" viewBox="0 0 16 19" fill="none" xmlns="http://www.w3.org/2000/svg">
<path d="M12.5891 3.35809C12.5891 3.35809 13.0991 3.85809 12.5891 3.35809C11.9055 2.57771 11.5288 1.57552 11.5291 0.538086H8.43911V12.9381C8.41528 13.6091 8.13198 14.2447 7.64887 14.711C7.16577 15.1773 6.52056 15.438 5.84911 15.4381C4.42911 15.4381 3.24911 14.2781 3.24911 12.8381C3.24911 11.1181 4.90911 9.82809 6.61911 10.3581V7.19809C3.16911 6.73809 0.149109 9.41809 0.149109 12.8381C0.149109 16.1681 2.90911 18.5381 5.83911 18.5381C8.97911 18.5381 11.5291 15.9881 11.5291 12.8381V6.54809C12.7821 7.44794 14.2865 7.93073 15.8291 7.92809V4.83809C15.8291 4.83809 13.9491 4.92809 12.5891 3.35809Z" fill="white"/>
</svg>
