<svg width="17" height="13" viewBox="0 0 17 13" fill="none" xmlns="http://www.w3.org/2000/svg">
<path fill-rule="evenodd" clip-rule="evenodd" d="M8.50994 3.54318L8.54351 4.09682L7.98393 4.02903C5.94704 3.76916 4.16757 2.88786 2.65669 1.40773L1.91804 0.673315L1.72779 1.21565C1.32489 2.42461 1.58229 3.70137 2.42167 4.56007C2.86934 5.03461 2.76861 5.1024 1.99639 4.81994C1.72779 4.72955 1.49276 4.66176 1.47038 4.69565C1.39204 4.77474 1.66064 5.80292 1.87328 6.20968C2.16426 6.77461 2.75742 7.32825 3.40654 7.65591L3.95493 7.91578L3.30581 7.92708C2.67908 7.92708 2.65669 7.93838 2.72384 8.17565C2.94768 8.91007 3.83182 9.68968 4.81669 10.0286L5.51057 10.2659L4.90622 10.6275C4.01089 11.1472 2.95887 11.441 1.90685 11.4636C1.40323 11.4749 0.989136 11.5201 0.989136 11.554C0.989136 11.6669 2.35452 12.2997 3.14913 12.5482C5.53295 13.2827 8.36445 12.9663 10.4909 11.7121C12.0017 10.8195 13.5126 9.04565 14.2177 7.32825C14.5982 6.41305 14.9787 4.74085 14.9787 3.93864C14.9787 3.4189 15.0123 3.35111 15.639 2.72968C16.0084 2.36812 16.3553 1.97267 16.4224 1.85968C16.5344 1.645 16.5232 1.645 15.9524 1.83708C15.0011 2.17604 14.8668 2.13085 15.3369 1.62241C15.6838 1.26085 16.0979 0.605523 16.0979 0.413445C16.0979 0.379549 15.93 0.436043 15.7398 0.537731C15.5383 0.650718 15.0906 0.820198 14.7549 0.921887L14.1505 1.11396L13.6021 0.741107C13.3 0.537731 12.8747 0.311757 12.6509 0.243965C12.0801 0.0857831 11.2071 0.10838 10.6923 0.28916C9.29335 0.797601 8.40921 2.10825 8.50994 3.54318Z" fill="white"/>
</svg>
