<svg width="204" height="52" viewBox="0 0 204 52" fill="none" xmlns="http://www.w3.org/2000/svg">
<path d="M27.0741 12.0869C27.0741 14.7607 27.0756 17.2456 27.0741 18.9423V20.4829C28.6684 21.8718 29.6786 23.921 29.6786 26.2067C29.6786 30.3957 26.2889 33.7907 22.105 33.7907C17.9212 33.7907 14.5315 30.3957 14.5315 26.2067C14.5315 23.7426 15.7026 21.5521 17.5204 20.1677V15.8447C16.905 15.6678 16.2315 15.5399 15.491 15.4581C15.2184 15.4447 14.9472 15.4298 14.6775 15.4165C13.7507 15.3704 12.8314 15.3243 11.9196 15.2544C8.98728 17.9846 7.1561 21.8823 7.1561 26.2067C7.1561 34.4733 22.1035 51.1538 22.1035 51.1538C22.1035 51.1538 37.051 34.4733 37.051 26.2067C37.051 19.6844 32.8865 14.1361 27.0726 12.0869H27.0741Z" fill="#599DA1"/>
<path d="M15.7207 12.6713C17.3091 12.8409 18.884 13.2186 20.3128 13.9487C20.3114 16.7251 20.3143 22.7016 20.3128 25.5167C20.3128 26.6141 21.2039 27.5049 22.3005 27.5049C23.3971 27.5049 24.2851 26.6141 24.2851 25.5152V18.9438C24.2866 14.5346 24.2851 4.78242 24.2851 0.301876C23.5223 0.0936856 22.7758 2.1789e-07 22.0472 2.1789e-07C15.4689 -0.00148685 10.0931 7.60934 3.55955 7.60934C2.41376 7.60934 1.23221 7.37588 0 6.82566C2.51508 9.61392 4.91841 10.9954 7.45733 11.7196C9.99625 12.4468 12.6693 12.5137 15.7222 12.6743L15.7207 12.6713Z" fill="#599DA1"/>
<path d="M70.0424 25.7591C68.8534 25.1122 67.356 24.6274 65.5457 24.3033L58.9421 23.1701C57.8887 22.9277 57.0245 22.6719 56.3495 22.4013C55.6746 22.1054 55.1754 21.7143 54.8506 21.228C54.5273 20.7432 54.3649 20.1231 54.3649 19.3677C54.3649 18.5319 54.5943 17.8583 55.0532 17.3453C55.5122 16.8054 56.2422 16.401 57.2405 16.1318C58.2671 15.8626 59.6036 15.7273 61.2515 15.7273C63.1423 15.7273 64.6412 15.9162 65.7483 16.2939C66.8553 16.6448 67.6525 17.1965 68.1382 17.952C68.624 18.6806 68.8668 19.5967 68.8668 20.7016V21.228H73.2012V20.9856C73.2012 19.2056 72.7825 17.6293 71.9451 16.2537C71.1346 14.8514 69.8785 13.7465 68.1784 12.9376C66.4769 12.1286 64.303 11.7241 61.6568 11.7241C59.5232 11.7241 57.7143 11.9531 56.2288 12.4111C54.7701 12.8424 53.5826 13.4357 52.6648 14.1912C51.747 14.9466 51.072 15.7957 50.6399 16.7385C50.2078 17.6828 49.9918 18.639 49.9918 19.6101C49.9918 21.0927 50.3166 22.3329 50.9633 23.3307C51.6382 24.3018 52.5695 25.0825 53.7585 25.6758C54.9475 26.2424 56.2974 26.6737 57.8097 26.9696L64.4535 28.0611C66.1551 28.3853 67.3843 28.8165 68.1397 29.3548C68.8951 29.8946 69.2736 30.7572 69.2736 31.9438C69.2736 32.7796 69.0441 33.48 68.5852 34.0466C68.1531 34.5864 67.4245 34.9908 66.3979 35.26C65.3713 35.5024 63.9946 35.6243 62.2662 35.6243C60.2682 35.6243 58.7022 35.4489 57.5668 35.0979C56.433 34.7202 55.6224 34.1819 55.1367 33.48C54.651 32.7513 54.4081 31.8487 54.4081 30.7705V30.1237H50.0335V30.3661C50.0335 32.2532 50.4924 33.8979 51.4103 35.3002C52.3281 36.6757 53.6929 37.7404 55.5017 38.4944C57.3374 39.2498 59.5932 39.626 62.2662 39.626C64.9392 39.626 67.1131 39.2617 68.7878 38.5345C70.4626 37.7791 71.6903 36.7962 72.474 35.5827C73.2578 34.3692 73.6482 33.0755 73.6482 31.7C73.6482 30.3244 73.3516 29.2195 72.7571 28.2217C72.1626 27.2239 71.2582 26.4015 70.0424 25.7546V25.7591Z" fill="#0D1311"/>
<path d="M92.1893 19.7735C90.6233 19.0731 88.8264 18.7222 86.8015 18.7222C84.5874 18.7222 82.6564 19.1668 81.0085 20.0561C79.3606 20.9186 78.0777 22.132 77.1599 23.6964C76.2689 25.2608 75.8234 27.0929 75.8234 29.1971C75.8234 31.3013 76.2689 33.0665 77.1599 34.6561C78.0777 36.2205 79.3606 37.4474 81.0085 38.3366C82.6564 39.1991 84.5859 39.6304 86.8015 39.6304C88.8264 39.6304 90.6233 39.2794 92.1893 38.579C93.7552 37.8786 94.9845 36.8942 95.8755 35.6272C96.7933 34.3602 97.2522 32.891 97.2522 31.2195V30.7749H92.9179V31.0574C92.9179 32.6218 92.3785 33.4962 91.2983 34.2784C90.218 35.0339 88.6923 35.4101 86.7211 35.4101C84.4518 35.4101 82.792 34.8703 81.7386 33.7922C80.6852 32.6873 80.1592 31.3534 80.1592 29.1956C80.1592 27.0379 80.6852 25.3813 81.7386 24.3017C82.792 23.1968 84.4533 22.6436 86.7211 22.6436C88.6923 22.6436 90.218 23.0347 91.2983 23.8169C92.3785 24.5723 92.9179 25.7307 92.9179 27.2951V27.5375H97.2522V27.133C97.2522 25.4348 96.7933 23.9656 95.8755 22.7254C94.9845 21.4584 93.7552 20.4739 92.1893 19.7735Z" fill="#0D1311"/>
<path d="M114.763 19.6932C113.791 19.0463 112.535 18.7222 110.996 18.7222C109.619 18.7222 108.444 18.9779 107.472 19.491C106.527 20.004 105.77 20.7044 105.204 21.5937C104.637 22.4562 104.26 23.4406 104.07 24.5455H103.787V19.1267H99.7778V39.2259H104.152V27.942C104.152 26.162 104.531 25.0987 105.286 24.1544C106.043 23.2102 107.284 22.7387 109.013 22.7387C110.525 22.7387 111.605 23.0763 112.253 23.75C112.902 24.4236 113.225 25.7858 113.225 27.2416V27.5346H117.559V25.7977C117.559 24.5307 117.33 23.3574 116.871 22.2792C116.439 21.2011 115.737 20.3386 114.764 19.6902L114.763 19.6932Z" fill="#0D1311"/>
<path d="M135.472 19.8137C134.122 19.085 132.38 18.7222 130.246 18.7222C128.113 18.7222 126.275 19.0731 124.736 19.7735C123.224 20.4739 122.063 21.4316 121.253 22.6451C120.442 23.8317 120.037 25.7872 120.037 27.3249V27.536H124.371V27.3249C124.371 25.8423 124.83 24.1827 125.748 23.5358C126.666 22.8889 128.057 22.5648 129.92 22.5648C131.782 22.5648 133.228 22.9023 134.011 23.576C134.822 24.2228 135.227 25.3828 135.227 27.0542V28.229L126.073 29.1971C124.75 29.3592 123.602 29.6417 122.629 30.0462C121.658 30.4507 120.901 31.0173 120.362 31.7445C119.849 32.4449 119.591 33.3222 119.591 34.3736C119.591 36.0183 120.199 37.3121 121.414 38.2563C122.656 39.1724 124.316 39.6319 126.396 39.6319C128.692 39.6319 130.596 39.1605 132.109 38.2162C133.648 37.2451 134.688 35.9112 135.227 34.213H135.51V39.2274H139.521V27.0141C139.521 25.3961 139.183 23.9671 138.508 22.7269C137.86 21.4866 136.847 20.5156 135.47 19.8152L135.472 19.8137ZM131.583 35.9097C130.449 36.2875 129.112 36.4763 127.572 36.4763C126.329 36.4763 125.411 36.2875 124.817 35.9097C124.249 35.5053 123.966 34.8985 123.966 34.0896C123.966 33.2806 124.236 32.7557 124.777 32.4315C125.344 32.0805 126.195 31.8381 127.329 31.7028L135.227 30.818C135.227 32.137 134.902 33.2137 134.256 34.0479C133.608 34.8837 132.717 35.5038 131.581 35.9083L131.583 35.9097Z" fill="#0D1311"/>
<path d="M174.511 19.8141C172.945 19.1136 171.148 18.7627 169.123 18.7627C166.909 18.7627 164.978 19.2073 163.33 20.0966C161.682 20.9591 160.399 22.1726 159.481 23.737C158.59 25.3014 158.145 27.1334 158.145 29.2376C158.145 31.3418 158.59 33.107 159.481 34.6967C160.399 36.2611 161.682 37.4879 163.33 38.3772C164.978 39.2397 166.907 39.6709 169.123 39.6709C171.148 39.6709 172.945 39.32 174.511 38.6196C176.076 37.9192 177.306 36.9347 178.197 35.6677C179.115 34.4007 179.573 32.9315 179.573 31.26V30.8154H175.239V31.098C175.239 32.6624 174.7 33.5367 173.62 34.3189C172.539 35.0744 171.014 35.4506 169.042 35.4506C166.773 35.4506 165.113 34.9108 164.06 33.8327C163.006 32.7278 162.48 31.3939 162.48 29.2361C162.48 27.0784 163.006 25.4218 164.06 24.3422C165.113 23.2373 166.775 22.6841 169.042 22.6841C171.014 22.6841 172.539 23.0752 173.62 23.8574C174.7 24.6128 175.239 25.7713 175.239 27.3357V27.5781H179.573V27.1736C179.573 25.4753 179.115 24.0061 178.197 22.7659C177.306 21.4989 176.076 20.5145 174.511 19.8141Z" fill="#0D1311"/>
<path d="M149.075 12.0259H144.741V19.1266H141.338V22.767H144.741V32.433C144.741 34.8599 145.362 36.5983 146.605 37.6496C147.874 38.701 149.589 39.2274 151.75 39.2274H156.367V35.3045H152.721C151.48 35.3045 150.561 35.1023 149.968 34.6978C149.373 34.2665 149.077 33.4308 149.077 32.1906V22.767H156.369V19.1266H149.077V12.0259H149.075Z" fill="#0D1311"/>
<path d="M202.377 22.8876C201.783 21.5939 200.865 20.5827 199.622 19.854C198.408 19.0986 196.881 18.7224 195.045 18.7224C193.344 18.7224 191.912 19.0332 190.751 19.6533C189.59 20.2734 188.684 21.0823 188.038 22.0802C187.416 23.078 186.984 24.1427 186.742 25.2759H186.499V12.0454H182.124V39.2276H186.499V29.4813C186.499 28.0522 186.701 26.8388 187.107 25.841C187.539 24.8164 188.227 24.0342 189.173 23.4959C190.118 22.9293 191.387 22.6467 192.98 22.6467C195.087 22.6467 196.613 23.0914 197.557 23.9806C198.502 24.8432 198.974 26.2856 198.974 28.308V39.2276H203.309V27.2567C203.309 25.612 202.997 24.1561 202.377 22.8891V22.8876Z" fill="#0D1311"/>
</svg>
