<svg width="27" height="37" viewBox="0 0 27 37" fill="none" xmlns="http://www.w3.org/2000/svg">
<path d="M26.7054 18.8984C26.7054 24.85 15.9419 36.8595 15.9419 36.8595C15.9419 36.8595 5.17847 24.85 5.17847 18.8984C5.17847 15.7847 6.49735 12.9784 8.60842 11.0128C9.26571 11.0631 9.9273 11.0961 10.5946 11.1292C10.7884 11.1392 10.9836 11.1493 11.1802 11.1593C11.7126 11.2182 12.1977 11.3102 12.6411 11.4381V14.5504C11.3323 15.5476 10.4884 17.1239 10.4884 18.8984C10.4884 21.9145 12.9296 24.3586 15.9419 24.3586C18.9542 24.3586 21.3954 21.9145 21.3954 18.8984C21.3954 17.2532 20.6678 15.7775 19.5197 14.7774V13.6681C19.5211 12.4468 19.5197 10.6579 19.5197 8.73242C23.7059 10.2081 26.7054 14.2027 26.7054 18.8984Z" fill="#F4F8E8"/>
<path d="M17.5154 13.6372V18.3683C17.5154 19.1599 16.8743 19.8007 16.0838 19.8007C15.2932 19.8007 14.6507 19.1599 14.6507 18.3697C14.6522 16.344 14.6493 12.041 14.6507 10.0426C13.6202 9.51674 12.4847 9.2452 11.3391 9.12308C9.13713 9.00815 7.20967 8.9593 5.3785 8.43634C3.54734 7.91481 1.81392 6.92061 0 4.91354C0.888272 5.31007 1.74061 5.47816 2.56708 5.47816C7.2801 5.47816 11.1566 -0.00143642 15.9012 2.8247e-07C16.4273 2.8247e-07 16.9649 0.0675255 17.5154 0.216943C17.5154 3.44235 17.5168 10.4635 17.5154 13.6372Z" fill="#F4F8E8"/>
</svg>
